<svg id="visual" viewBox="0 0 900 450" width="900" height="450" xmlns="http://www.w3.org/2000/svg" xmlns:xlink="http://www.w3.org/1999/xlink" version="1.1"><rect x="0" y="0" width="900" height="450" fill="#000000"></rect><path d="M0 106L21.5 111.7C43 117.3 86 128.7 128.8 126.3C171.7 124 214.3 108 257.2 105C300 102 343 112 385.8 123.5C428.7 135 471.3 148 514.2 147.8C557 147.7 600 134.3 642.8 135C685.7 135.7 728.3 150.3 771.2 157.8C814 165.3 857 165.7 878.5 165.8L900 166L900 0L878.5 0C857 0 814 0 771.2 0C728.3 0 685.7 0 642.8 0C600 0 557 0 514.2 0C471.3 0 428.7 0 385.8 0C343 0 300 0 257.2 0C214.3 0 171.7 0 128.8 0C86 0 43 0 21.5 0L0 0Z" fill="#95d5b2" stroke-linecap="round" stroke-linejoin="miter"></path></svg>