<svg id="visual" viewBox="0 0 900 450" width="900" height="450" xmlns="http://www.w3.org/2000/svg" xmlns:xlink="http://www.w3.org/1999/xlink" version="1.1"><rect x="0" y="0" width="900" height="450" fill="#000000"></rect><path d="M0 347L21.5 338.2C43 329.3 86 311.7 128.8 319.2C171.7 326.7 214.3 359.3 257.2 361.7C300 364 343 336 385.8 319.8C428.7 303.7 471.3 299.3 514.2 310.2C557 321 600 347 642.8 346.7C685.7 346.3 728.3 319.7 771.2 315.3C814 311 857 329 878.5 338L900 347L900 451L878.5 451C857 451 814 451 771.2 451C728.3 451 685.7 451 642.8 451C600 451 557 451 514.2 451C471.3 451 428.7 451 385.8 451C343 451 300 451 257.2 451C214.3 451 171.7 451 128.8 451C86 451 43 451 21.5 451L0 451Z" fill="#95d5b2" stroke-linecap="round" stroke-linejoin="miter"></path></svg>