<svg id="visual" viewBox="0 0 900 600" width="900" height="600" xmlns="http://www.w3.org/2000/svg" xmlns:xlink="http://www.w3.org/1999/xlink" version="1.1"><rect x="0" y="0" width="900" height="600" fill="#000000"></rect><path d="M0 435L21.5 430.8C43 426.7 86 418.3 128.8 408C171.7 397.7 214.3 385.3 257.2 375.5C300 365.7 343 358.3 385.8 360.8C428.7 363.3 471.3 375.7 514.2 383C557 390.3 600 392.7 642.8 386.2C685.7 379.7 728.3 364.3 771.2 373.3C814 382.3 857 415.7 878.5 432.3L900 449L900 601L878.5 601C857 601 814 601 771.2 601C728.3 601 685.7 601 642.8 601C600 601 557 601 514.2 601C471.3 601 428.7 601 385.8 601C343 601 300 601 257.2 601C214.3 601 171.7 601 128.8 601C86 601 43 601 21.5 601L0 601Z" fill="#b6e2cb"></path><path d="M0 446L21.5 447.3C43 448.7 86 451.3 128.8 448C171.7 444.7 214.3 435.3 257.2 433C300 430.7 343 435.3 385.8 431.2C428.7 427 471.3 414 514.2 417C557 420 600 439 642.8 449.8C685.7 460.7 728.3 463.3 771.2 455.5C814 447.7 857 429.3 878.5 420.2L900 411L900 601L878.5 601C857 601 814 601 771.2 601C728.3 601 685.7 601 642.8 601C600 601 557 601 514.2 601C471.3 601 428.7 601 385.8 601C343 601 300 601 257.2 601C214.3 601 171.7 601 128.8 601C86 601 43 601 21.5 601L0 601Z" fill="#a5dcbf"></path><path d="M0 501L21.5 501.5C43 502 86 503 128.8 495C171.7 487 214.3 470 257.2 466.3C300 462.7 343 472.3 385.8 473.2C428.7 474 471.3 466 514.2 460.7C557 455.3 600 452.7 642.8 461.5C685.7 470.3 728.3 490.7 771.2 489.7C814 488.7 857 466.3 878.5 455.2L900 444L900 601L878.5 601C857 601 814 601 771.2 601C728.3 601 685.7 601 642.8 601C600 601 557 601 514.2 601C471.3 601 428.7 601 385.8 601C343 601 300 601 257.2 601C214.3 601 171.7 601 128.8 601C86 601 43 601 21.5 601L0 601Z" fill="#95d5b2"></path><path d="M0 486L21.5 488.2C43 490.3 86 494.7 128.8 495.5C171.7 496.3 214.3 493.7 257.2 495.5C300 497.3 343 503.7 385.8 510.2C428.7 516.7 471.3 523.3 514.2 518.8C557 514.3 600 498.7 642.8 499.8C685.7 501 728.3 519 771.2 527C814 535 857 533 878.5 532L900 531L900 601L878.5 601C857 601 814 601 771.2 601C728.3 601 685.7 601 642.8 601C600 601 557 601 514.2 601C471.3 601 428.7 601 385.8 601C343 601 300 601 257.2 601C214.3 601 171.7 601 128.8 601C86 601 43 601 21.5 601L0 601Z" fill="#84c7a2"></path><path d="M0 547L21.5 549C43 551 86 555 128.8 557.3C171.7 559.7 214.3 560.3 257.2 561C300 561.7 343 562.3 385.8 561.2C428.7 560 471.3 557 514.2 550.7C557 544.3 600 534.7 642.8 531.7C685.7 528.7 728.3 532.3 771.2 538.5C814 544.7 857 553.3 878.5 557.7L900 562L900 601L878.5 601C857 601 814 601 771.2 601C728.3 601 685.7 601 642.8 601C600 601 557 601 514.2 601C471.3 601 428.7 601 385.8 601C343 601 300 601 257.2 601C214.3 601 171.7 601 128.8 601C86 601 43 601 21.5 601L0 601Z" fill="#74b993"></path></svg>